Coordinates
version=1
nRows=7
nColumns=32
inDegrees=yes

Units are S.I. units (second, meters, Newtons, ...)
If the header above contains a line with 'inDegrees', this indicates whether rotational values are in degrees (yes) or radians (no).

endheader
time	pelvis_tilt	pelvis_list	pelvis_rotation	pelvis_tx	pelvis_ty	pelvis_tz	hip_flexion_r	hip_adduction_r	hip_rotation_r	knee_angle_r	ankle_angle_r	subtalar_angle_r	mtp_angle_r	hip_flexion_l	hip_adduction_l	hip_rotation_l	knee_angle_l	ankle_angle_l	subtalar_angle_l	mtp_angle_l	lumbar_extension	lumbar_bending	lumbar_rotation	arm_flex_r	arm_add_r	arm_rot_r	elbow_flex_r	arm_flex_l	arm_add_l	arm_rot_l	elbow_flex_l
      6.90000000	      4.73140548	     -2.33046679	    -89.13575499	     -0.00890968	      0.99086645	      1.12562011	     21.13560071	     -4.55972758	     -6.60897123	    -19.28389426	     -0.29201017	     -5.90242367	      0.00000000	     -1.83692302	      5.51774408	     -3.12400498	    -16.33973695	     13.01935894	     -7.13842561	      0.00000000	    -10.09628463	     -4.24161817	      2.69011789	      0.00000000	      0.00000000	      0.00000000	      0.00000000	      0.00000000	      0.00000000	      0.00000000	      0.00000000
      6.91000000	      4.14417648	     -2.52005283	    -89.03302261	     -0.01018853	      0.99030796	      1.13368192	     20.91996225	     -3.87150346	     -6.38086173	    -19.99887951	     -0.31234302	     -6.94596249	      0.00000000	     -2.22694432	      4.77300863	     -3.13302063	    -16.99373202	     14.33956038	     -7.13666278	      0.00000000	    -10.16313672	     -3.44129405	      2.57505426	      0.00000000	      0.00000000	      0.00000000	      0.00000000	      0.00000000	      0.00000000	      0.00000000	      0.00000000
      6.92000000	      3.90383615	     -2.56593758	    -89.03419778	     -0.01146542	      0.98959533	      1.14186765	     21.02555183	     -3.59128525	     -6.24042353	    -21.07267778	     -0.56640759	     -7.11466299	      0.00000000	     -2.65715244	      4.43800213	     -3.02512520	    -17.24388371	     14.40118256	     -7.01673625	      0.00000000	    -10.06150611	     -3.05070245	      2.34047241	      0.00000000	      0.00000000	      0.00000000	      0.00000000	      0.00000000	      0.00000000	      0.00000000	      0.00000000
      6.93000000	      3.21433300	     -2.45379475	    -88.91097537	     -0.01322558	      0.98847095	      1.14982762	     21.03396057	     -2.73384597	     -6.13334232	    -21.67386659	     -2.01847738	     -9.53851366	      0.00000000	     -2.50355009	      3.45979296	     -3.39712408	    -18.29028797	     15.85370339	     -5.75883365	      0.00000000	     -9.78917800	     -2.19456955	      2.05274765	      0.00000000	      0.00000000	      0.00000000	      0.00000000	      0.00000000	      0.00000000	      0.00000000	      0.00000000
      6.94000000	      3.02175374	     -2.48882158	    -89.08555958	     -0.01479088	      0.98741066	      1.15788446	     21.08738913	     -2.43065924	     -6.13045209	    -22.66586870	     -1.81121119	     -9.73292986	      0.00000000	     -2.80878536	      3.17941155	     -3.39068239	    -18.74364877	     16.00575259	     -5.83831639	      0.00000000	     -9.67617184	     -1.88401477	      1.87586801	      0.00000000	      0.00000000	      0.00000000	      0.00000000	      0.00000000	      0.00000000	      0.00000000	      0.00000000
      6.95000000	      2.52271109	     -2.16657719	    -89.03055024	     -0.01648002	      0.98550204	      1.16594160	     21.27859266	     -1.76651958	     -6.08901878	    -23.26562922	     -1.33381608	    -10.69152510	      0.00000000	     -2.36611902	      2.45743796	     -3.67136839	    -19.87643430	     17.20349852	     -5.82519587	      0.00000000	     -9.10830996	     -1.24261548	      1.64179764	      0.00000000	      0.00000000	      0.00000000	      0.00000000	      0.00000000	      0.00000000	      0.00000000	      0.00000000
      6.96000000	      2.13949534	     -1.88687026	    -88.98227983	     -0.01833344	      0.98376684	      1.17364679	     21.44417348	     -1.21293792	     -6.12915330	    -23.87401109	     -1.26211426	    -11.63497805	      0.00000000	     -1.81818837	      1.82839489	     -4.13135981	    -21.24519962	     17.83939371	     -5.50982088	      0.00000000	     -8.64351588	     -0.77834620	      1.35535953	      0.00000000	      0.00000000	      0.00000000	      0.00000000	      0.00000000	      0.00000000	      0.00000000	      0.00000000
